<svg width="280" height="66" viewBox="0 0 280 66" fill="none" xmlns="http://www.w3.org/2000/svg">
<path d="M1 12.2955V7.72727H20.6705V12.2955H13.6136V31H8.06818V12.2955H1ZM28.9744 21.0455V31H23.4176V7.72727H28.7926V16.75H28.9858C29.3797 15.6742 30.0237 14.8333 30.9176 14.2273C31.8191 13.6212 32.9214 13.3182 34.2244 13.3182C35.4517 13.3182 36.5199 13.5909 37.429 14.1364C38.3381 14.6742 39.0426 15.4356 39.5426 16.4205C40.0502 17.4053 40.3002 18.5568 40.2926 19.875V31H34.7358V20.9659C34.7434 19.9962 34.5009 19.2386 34.0085 18.6932C33.5161 18.1477 32.8229 17.875 31.929 17.875C31.3456 17.875 30.8305 18.0038 30.3835 18.2614C29.9441 18.5114 29.5994 18.8712 29.3494 19.3409C29.107 19.8106 28.982 20.3788 28.9744 21.0455ZM51.9205 31.3295C50.0947 31.3295 48.5189 30.9697 47.1932 30.25C45.875 29.5227 44.8598 28.4886 44.1477 27.1477C43.4432 25.7992 43.0909 24.197 43.0909 22.3409C43.0909 20.5379 43.447 18.9621 44.1591 17.6136C44.8712 16.2576 45.875 15.2045 47.1705 14.4545C48.4659 13.697 49.9924 13.3182 51.75 13.3182C52.9924 13.3182 54.1288 13.5114 55.1591 13.8977C56.1894 14.2841 57.0795 14.8561 57.8295 15.6136C58.5795 16.3712 59.1629 17.3068 59.5795 18.4205C59.9962 19.5265 60.2045 20.7955 60.2045 22.2273V23.6136H45.0341V20.3864H55.0341C55.0265 19.7955 54.8864 19.2689 54.6136 18.8068C54.3409 18.3447 53.9659 17.9848 53.4886 17.7273C53.0189 17.4621 52.4773 17.3295 51.8636 17.3295C51.2424 17.3295 50.6856 17.4697 50.1932 17.75C49.7008 18.0227 49.3106 18.3977 49.0227 18.875C48.7348 19.3447 48.5833 19.8788 48.5682 20.4773V23.7614C48.5682 24.4735 48.7083 25.0985 48.9886 25.6364C49.2689 26.1667 49.6667 26.5795 50.1818 26.875C50.697 27.1705 51.3106 27.3182 52.0227 27.3182C52.5152 27.3182 52.9621 27.25 53.3636 27.1136C53.7652 26.9773 54.1098 26.7765 54.3977 26.5114C54.6856 26.2462 54.9015 25.9205 55.0455 25.5341L60.1477 25.6818C59.9356 26.8258 59.4697 27.822 58.75 28.6705C58.0379 29.5114 57.1023 30.1667 55.9432 30.6364C54.7841 31.0985 53.4432 31.3295 51.9205 31.3295ZM91.0426 16.1591H85.3608C85.285 15.5758 85.1297 15.0492 84.8949 14.5795C84.66 14.1098 84.3494 13.7083 83.9631 13.375C83.5767 13.0417 83.1184 12.7879 82.5881 12.6136C82.0653 12.4318 81.4858 12.3409 80.8494 12.3409C79.7206 12.3409 78.7472 12.6174 77.929 13.1705C77.1184 13.7235 76.4934 14.5227 76.054 15.5682C75.6222 16.6136 75.4062 17.8788 75.4062 19.3636C75.4062 20.9091 75.6259 22.2045 76.0653 23.25C76.5123 24.2879 77.1373 25.072 77.9403 25.6023C78.7509 26.125 79.7093 26.3864 80.8153 26.3864C81.4366 26.3864 82.0009 26.3068 82.5085 26.1477C83.0237 25.9886 83.4744 25.7576 83.8608 25.4545C84.2547 25.1439 84.5767 24.7689 84.8267 24.3295C85.0843 23.8826 85.2623 23.3788 85.3608 22.8182L91.0426 22.8523C90.9441 23.8826 90.6449 24.8977 90.1449 25.8977C89.6525 26.8977 88.9744 27.8106 88.1108 28.6364C87.2472 29.4545 86.1941 30.1061 84.9517 30.5909C83.7169 31.0758 82.3002 31.3182 80.7017 31.3182C78.5956 31.3182 76.7093 30.8561 75.0426 29.9318C73.3835 29 72.0729 27.6439 71.1108 25.8636C70.1487 24.0833 69.6676 21.9167 69.6676 19.3636C69.6676 16.803 70.1562 14.6326 71.1335 12.8523C72.1108 11.072 73.4328 9.7197 75.0994 8.79545C76.7661 7.87121 78.6335 7.40909 80.7017 7.40909C82.1108 7.40909 83.4138 7.60606 84.6108 8C85.8078 8.38636 86.8608 8.95454 87.7699 9.70454C88.679 10.447 89.4176 11.3598 89.9858 12.4432C90.554 13.5265 90.9062 14.7652 91.0426 16.1591ZM94.2614 31V13.5455H99.6591V16.7273H99.8409C100.159 15.5758 100.678 14.7197 101.398 14.1591C102.117 13.5909 102.955 13.3068 103.909 13.3068C104.167 13.3068 104.432 13.3258 104.705 13.3636C104.977 13.3939 105.231 13.4432 105.466 13.5114V18.3409C105.201 18.25 104.852 18.178 104.42 18.125C103.996 18.072 103.617 18.0455 103.284 18.0455C102.625 18.0455 102.03 18.1932 101.5 18.4886C100.977 18.7765 100.564 19.1818 100.261 19.7045C99.9659 20.2197 99.8182 20.8258 99.8182 21.5227V31H94.2614ZM111.994 31.2955C110.881 31.2955 109.892 31.1098 109.028 30.7386C108.172 30.3598 107.494 29.7917 106.994 29.0341C106.502 28.2689 106.256 27.3106 106.256 26.1591C106.256 25.1894 106.426 24.3712 106.767 23.7045C107.108 23.0379 107.578 22.4962 108.176 22.0795C108.775 21.6629 109.464 21.3485 110.244 21.1364C111.025 20.9167 111.858 20.7689 112.744 20.6932C113.737 20.6023 114.536 20.5076 115.142 20.4091C115.748 20.303 116.188 20.1553 116.46 19.9659C116.741 19.7689 116.881 19.4924 116.881 19.1364V19.0795C116.881 18.4962 116.68 18.0455 116.278 17.7273C115.877 17.4091 115.335 17.25 114.653 17.25C113.919 17.25 113.328 17.4091 112.881 17.7273C112.434 18.0455 112.15 18.4848 112.028 19.0455L106.903 18.8636C107.055 17.803 107.445 16.8561 108.074 16.0227C108.71 15.1818 109.581 14.5227 110.688 14.0455C111.801 13.5606 113.138 13.3182 114.699 13.3182C115.813 13.3182 116.839 13.4508 117.778 13.7159C118.718 13.9735 119.536 14.3523 120.233 14.8523C120.93 15.3447 121.468 15.9508 121.847 16.6705C122.233 17.3902 122.426 18.2121 122.426 19.1364V31H117.199V28.5682H117.062C116.752 29.1591 116.354 29.6591 115.869 30.0682C115.392 30.4773 114.828 30.7841 114.176 30.9886C113.532 31.1932 112.805 31.2955 111.994 31.2955ZM113.71 27.6591C114.309 27.6591 114.847 27.5379 115.324 27.2955C115.809 27.053 116.195 26.7197 116.483 26.2955C116.771 25.8636 116.915 25.3636 116.915 24.7955V23.1364C116.756 23.2197 116.563 23.2955 116.335 23.3636C116.116 23.4318 115.873 23.4962 115.608 23.5568C115.343 23.6174 115.07 23.6705 114.79 23.7159C114.509 23.7614 114.241 23.803 113.983 23.8409C113.46 23.9242 113.013 24.053 112.642 24.2273C112.278 24.4015 111.998 24.6288 111.801 24.9091C111.612 25.1818 111.517 25.5076 111.517 25.8864C111.517 26.4621 111.722 26.9015 112.131 27.2045C112.547 27.5076 113.074 27.6591 113.71 27.6591ZM135.744 13.5455V17.6364H124.517V13.5455H135.744ZM126.858 31V12.6591C126.858 11.3106 127.112 10.1932 127.619 9.30682C128.127 8.41288 128.831 7.74621 129.733 7.30682C130.634 6.85985 131.676 6.63636 132.858 6.63636C133.631 6.63636 134.358 6.69697 135.04 6.81818C135.729 6.93182 136.241 7.03409 136.574 7.125L135.688 11.1932C135.483 11.125 135.233 11.0682 134.938 11.0227C134.65 10.9773 134.377 10.9545 134.119 10.9545C133.468 10.9545 133.021 11.0985 132.778 11.3864C132.536 11.6742 132.415 12.0682 132.415 12.5682V31H126.858ZM148.27 13.5455V17.6364H137.259V13.5455H148.27ZM139.565 9.36364H145.122V25.5114C145.122 25.8523 145.175 26.1288 145.281 26.3409C145.395 26.5455 145.558 26.6932 145.77 26.7841C145.982 26.8674 146.236 26.9091 146.531 26.9091C146.743 26.9091 146.967 26.8902 147.202 26.8523C147.444 26.8068 147.626 26.7689 147.747 26.7386L148.588 30.75C148.323 30.8258 147.948 30.9205 147.463 31.0341C146.986 31.1477 146.414 31.2197 145.747 31.25C144.444 31.3106 143.327 31.1591 142.395 30.7955C141.471 30.4242 140.762 29.8485 140.27 29.0682C139.785 28.2879 139.55 27.3068 139.565 26.125V9.36364ZM157.037 7.72727V31H151.48V7.72727H157.037ZM163.972 37.5455C163.305 37.5455 162.676 37.4924 162.085 37.3864C161.494 37.2879 160.987 37.1553 160.562 36.9886L161.79 32.9545C162.335 33.1364 162.828 33.2424 163.267 33.2727C163.714 33.303 164.097 33.2311 164.415 33.0568C164.741 32.8902 164.991 32.5909 165.165 32.1591L165.381 31.6364L159.176 13.5455H164.994L168.21 26H168.392L171.653 13.5455H177.506L170.926 32.6705C170.608 33.625 170.157 34.4659 169.574 35.1932C168.998 35.928 168.252 36.5038 167.335 36.9205C166.426 37.3371 165.305 37.5455 163.972 37.5455ZM199.091 14.7045C199.015 13.8712 198.678 13.2235 198.08 12.7614C197.489 12.2917 196.644 12.0568 195.545 12.0568C194.818 12.0568 194.212 12.1515 193.727 12.3409C193.242 12.5303 192.879 12.7917 192.636 13.125C192.394 13.4508 192.269 13.8258 192.261 14.25C192.246 14.5985 192.314 14.9053 192.466 15.1705C192.625 15.4356 192.852 15.6705 193.148 15.875C193.451 16.072 193.814 16.2462 194.239 16.3977C194.663 16.5492 195.14 16.6818 195.67 16.7955L197.67 17.25C198.822 17.5 199.837 17.8333 200.716 18.25C201.602 18.6667 202.345 19.1629 202.943 19.7386C203.549 20.3144 204.008 20.9773 204.318 21.7273C204.629 22.4773 204.788 23.3182 204.795 24.25C204.788 25.7197 204.417 26.9811 203.682 28.0341C202.947 29.0871 201.89 29.8939 200.511 30.4545C199.14 31.0152 197.485 31.2955 195.545 31.2955C193.598 31.2955 191.902 31.0038 190.455 30.4205C189.008 29.8371 187.883 28.9508 187.08 27.7614C186.277 26.572 185.864 25.0682 185.841 23.25H191.227C191.273 24 191.473 24.625 191.83 25.125C192.186 25.625 192.674 26.0038 193.295 26.2614C193.924 26.5189 194.652 26.6477 195.477 26.6477C196.235 26.6477 196.879 26.5455 197.409 26.3409C197.947 26.1364 198.36 25.8523 198.648 25.4886C198.936 25.125 199.083 24.7083 199.091 24.2386C199.083 23.7992 198.947 23.4242 198.682 23.1136C198.417 22.7955 198.008 22.5227 197.455 22.2955C196.909 22.0606 196.212 21.8447 195.364 21.6477L192.932 21.0795C190.917 20.6174 189.33 19.8712 188.17 18.8409C187.011 17.803 186.436 16.4015 186.443 14.6364C186.436 13.197 186.822 11.9356 187.602 10.8523C188.383 9.76894 189.462 8.92424 190.841 8.31818C192.22 7.71212 193.792 7.40909 195.557 7.40909C197.36 7.40909 198.924 7.71591 200.25 8.32954C201.583 8.93561 202.617 9.78788 203.352 10.8864C204.087 11.9848 204.462 13.2576 204.477 14.7045H199.091ZM213.193 21.0455V31H207.636V7.72727H213.011V16.75H213.205C213.598 15.6742 214.242 14.8333 215.136 14.2273C216.038 13.6212 217.14 13.3182 218.443 13.3182C219.67 13.3182 220.739 13.5909 221.648 14.1364C222.557 14.6742 223.261 15.4356 223.761 16.4205C224.269 17.4053 224.519 18.5568 224.511 19.875V31H218.955V20.9659C218.962 19.9962 218.72 19.2386 218.227 18.6932C217.735 18.1477 217.042 17.875 216.148 17.875C215.564 17.875 215.049 18.0038 214.602 18.2614C214.163 18.5114 213.818 18.8712 213.568 19.3409C213.326 19.8106 213.201 20.3788 213.193 21.0455ZM236.128 31.3295C234.295 31.3295 232.719 30.9545 231.401 30.2045C230.09 29.447 229.079 28.3939 228.366 27.0455C227.662 25.6894 227.31 24.1174 227.31 22.3295C227.31 20.5341 227.662 18.9621 228.366 17.6136C229.079 16.2576 230.09 15.2045 231.401 14.4545C232.719 13.697 234.295 13.3182 236.128 13.3182C237.961 13.3182 239.533 13.697 240.844 14.4545C242.162 15.2045 243.173 16.2576 243.878 17.6136C244.59 18.9621 244.946 20.5341 244.946 22.3295C244.946 24.1174 244.59 25.6894 243.878 27.0455C243.173 28.3939 242.162 29.447 240.844 30.2045C239.533 30.9545 237.961 31.3295 236.128 31.3295ZM236.162 27.1364C236.829 27.1364 237.393 26.9318 237.855 26.5227C238.317 26.1136 238.67 25.5455 238.912 24.8182C239.162 24.0909 239.287 23.25 239.287 22.2955C239.287 21.3258 239.162 20.4773 238.912 19.75C238.67 19.0227 238.317 18.4545 237.855 18.0455C237.393 17.6364 236.829 17.4318 236.162 17.4318C235.473 17.4318 234.889 17.6364 234.412 18.0455C233.942 18.4545 233.582 19.0227 233.332 19.75C233.09 20.4773 232.969 21.3258 232.969 22.2955C232.969 23.25 233.09 24.0909 233.332 24.8182C233.582 25.5455 233.942 26.1136 234.412 26.5227C234.889 26.9318 235.473 27.1364 236.162 27.1364ZM247.793 37.5455V13.5455H253.293V16.5341H253.463C253.69 16.0038 254.012 15.4924 254.429 15C254.853 14.5076 255.391 14.1061 256.043 13.7955C256.702 13.4773 257.49 13.3182 258.406 13.3182C259.618 13.3182 260.751 13.6364 261.804 14.2727C262.865 14.9091 263.721 15.8902 264.372 17.2159C265.024 18.5417 265.349 20.2311 265.349 22.2841C265.349 24.2614 265.035 25.9167 264.406 27.25C263.785 28.5833 262.944 29.5833 261.884 30.25C260.83 30.9167 259.66 31.25 258.372 31.25C257.493 31.25 256.732 31.1061 256.088 30.8182C255.444 30.5303 254.902 30.1515 254.463 29.6818C254.031 29.2121 253.698 28.7083 253.463 28.1705H253.349V37.5455H247.793ZM253.236 22.2727C253.236 23.2121 253.361 24.0303 253.611 24.7273C253.868 25.4242 254.236 25.9659 254.713 26.3523C255.198 26.7311 255.777 26.9205 256.452 26.9205C257.134 26.9205 257.713 26.7311 258.19 26.3523C258.668 25.9659 259.027 25.4242 259.27 24.7273C259.52 24.0303 259.645 23.2121 259.645 22.2727C259.645 21.3333 259.52 20.5189 259.27 19.8295C259.027 19.1402 258.668 18.6061 258.19 18.2273C257.721 17.8485 257.141 17.6591 256.452 17.6591C255.77 17.6591 255.19 17.8447 254.713 18.2159C254.236 18.5871 253.868 19.1174 253.611 19.8068C253.361 20.4962 253.236 21.3182 253.236 22.2727Z" fill="black" fill-opacity="0.5"/>
<path d="M1 24.2955V19.7273H20.6705V24.2955H13.6136V43H8.06818V24.2955H1ZM28.9744 33.0455V43H23.4176V19.7273H28.7926V28.75H28.9858C29.3797 27.6742 30.0237 26.8333 30.9176 26.2273C31.8191 25.6212 32.9214 25.3182 34.2244 25.3182C35.4517 25.3182 36.5199 25.5909 37.429 26.1364C38.3381 26.6742 39.0426 27.4356 39.5426 28.4205C40.0502 29.4053 40.3002 30.5568 40.2926 31.875V43H34.7358V32.9659C34.7434 31.9962 34.5009 31.2386 34.0085 30.6932C33.5161 30.1477 32.8229 29.875 31.929 29.875C31.3456 29.875 30.8305 30.0038 30.3835 30.2614C29.9441 30.5114 29.5994 30.8712 29.3494 31.3409C29.107 31.8106 28.982 32.3788 28.9744 33.0455ZM51.9205 43.3295C50.0947 43.3295 48.5189 42.9697 47.1932 42.25C45.875 41.5227 44.8598 40.4886 44.1477 39.1477C43.4432 37.7992 43.0909 36.197 43.0909 34.3409C43.0909 32.5379 43.447 30.9621 44.1591 29.6136C44.8712 28.2576 45.875 27.2045 47.1705 26.4545C48.4659 25.697 49.9924 25.3182 51.75 25.3182C52.9924 25.3182 54.1288 25.5114 55.1591 25.8977C56.1894 26.2841 57.0795 26.8561 57.8295 27.6136C58.5795 28.3712 59.1629 29.3068 59.5795 30.4205C59.9962 31.5265 60.2045 32.7955 60.2045 34.2273V35.6136H45.0341V32.3864H55.0341C55.0265 31.7955 54.8864 31.2689 54.6136 30.8068C54.3409 30.3447 53.9659 29.9848 53.4886 29.7273C53.0189 29.4621 52.4773 29.3295 51.8636 29.3295C51.2424 29.3295 50.6856 29.4697 50.1932 29.75C49.7008 30.0227 49.3106 30.3977 49.0227 30.875C48.7348 31.3447 48.5833 31.8788 48.5682 32.4773V35.7614C48.5682 36.4735 48.7083 37.0985 48.9886 37.6364C49.2689 38.1667 49.6667 38.5795 50.1818 38.875C50.697 39.1705 51.3106 39.3182 52.0227 39.3182C52.5152 39.3182 52.9621 39.25 53.3636 39.1136C53.7652 38.9773 54.1098 38.7765 54.3977 38.5114C54.6856 38.2462 54.9015 37.9205 55.0455 37.5341L60.1477 37.6818C59.9356 38.8258 59.4697 39.822 58.75 40.6705C58.0379 41.5114 57.1023 42.1667 55.9432 42.6364C54.7841 43.0985 53.4432 43.3295 51.9205 43.3295ZM91.0426 28.1591H85.3608C85.285 27.5758 85.1297 27.0492 84.8949 26.5795C84.66 26.1098 84.3494 25.7083 83.9631 25.375C83.5767 25.0417 83.1184 24.7879 82.5881 24.6136C82.0653 24.4318 81.4858 24.3409 80.8494 24.3409C79.7206 24.3409 78.7472 24.6174 77.929 25.1705C77.1184 25.7235 76.4934 26.5227 76.054 27.5682C75.6222 28.6136 75.4062 29.8788 75.4062 31.3636C75.4062 32.9091 75.6259 34.2045 76.0653 35.25C76.5123 36.2879 77.1373 37.072 77.9403 37.6023C78.7509 38.125 79.7093 38.3864 80.8153 38.3864C81.4366 38.3864 82.0009 38.3068 82.5085 38.1477C83.0237 37.9886 83.4744 37.7576 83.8608 37.4545C84.2547 37.1439 84.5767 36.7689 84.8267 36.3295C85.0843 35.8826 85.2623 35.3788 85.3608 34.8182L91.0426 34.8523C90.9441 35.8826 90.6449 36.8977 90.1449 37.8977C89.6525 38.8977 88.9744 39.8106 88.1108 40.6364C87.2472 41.4545 86.1941 42.1061 84.9517 42.5909C83.7169 43.0758 82.3002 43.3182 80.7017 43.3182C78.5956 43.3182 76.7093 42.8561 75.0426 41.9318C73.3835 41 72.0729 39.6439 71.1108 37.8636C70.1487 36.0833 69.6676 33.9167 69.6676 31.3636C69.6676 28.803 70.1562 26.6326 71.1335 24.8523C72.1108 23.072 73.4328 21.7197 75.0994 20.7955C76.7661 19.8712 78.6335 19.4091 80.7017 19.4091C82.1108 19.4091 83.4138 19.6061 84.6108 20C85.8078 20.3864 86.8608 20.9545 87.7699 21.7045C88.679 22.447 89.4176 23.3598 89.9858 24.4432C90.554 25.5265 90.9062 26.7652 91.0426 28.1591ZM94.2614 43V25.5455H99.6591V28.7273H99.8409C100.159 27.5758 100.678 26.7197 101.398 26.1591C102.117 25.5909 102.955 25.3068 103.909 25.3068C104.167 25.3068 104.432 25.3258 104.705 25.3636C104.977 25.3939 105.231 25.4432 105.466 25.5114V30.3409C105.201 30.25 104.852 30.178 104.42 30.125C103.996 30.072 103.617 30.0455 103.284 30.0455C102.625 30.0455 102.03 30.1932 101.5 30.4886C100.977 30.7765 100.564 31.1818 100.261 31.7045C99.9659 32.2197 99.8182 32.8258 99.8182 33.5227V43H94.2614ZM111.994 43.2955C110.881 43.2955 109.892 43.1098 109.028 42.7386C108.172 42.3598 107.494 41.7917 106.994 41.0341C106.502 40.2689 106.256 39.3106 106.256 38.1591C106.256 37.1894 106.426 36.3712 106.767 35.7045C107.108 35.0379 107.578 34.4962 108.176 34.0795C108.775 33.6629 109.464 33.3485 110.244 33.1364C111.025 32.9167 111.858 32.7689 112.744 32.6932C113.737 32.6023 114.536 32.5076 115.142 32.4091C115.748 32.303 116.188 32.1553 116.46 31.9659C116.741 31.7689 116.881 31.4924 116.881 31.1364V31.0795C116.881 30.4962 116.68 30.0455 116.278 29.7273C115.877 29.4091 115.335 29.25 114.653 29.25C113.919 29.25 113.328 29.4091 112.881 29.7273C112.434 30.0455 112.15 30.4848 112.028 31.0455L106.903 30.8636C107.055 29.803 107.445 28.8561 108.074 28.0227C108.71 27.1818 109.581 26.5227 110.688 26.0455C111.801 25.5606 113.138 25.3182 114.699 25.3182C115.813 25.3182 116.839 25.4508 117.778 25.7159C118.718 25.9735 119.536 26.3523 120.233 26.8523C120.93 27.3447 121.468 27.9508 121.847 28.6705C122.233 29.3902 122.426 30.2121 122.426 31.1364V43H117.199V40.5682H117.062C116.752 41.1591 116.354 41.6591 115.869 42.0682C115.392 42.4773 114.828 42.7841 114.176 42.9886C113.532 43.1932 112.805 43.2955 111.994 43.2955ZM113.71 39.6591C114.309 39.6591 114.847 39.5379 115.324 39.2955C115.809 39.053 116.195 38.7197 116.483 38.2955C116.771 37.8636 116.915 37.3636 116.915 36.7955V35.1364C116.756 35.2197 116.563 35.2955 116.335 35.3636C116.116 35.4318 115.873 35.4962 115.608 35.5568C115.343 35.6174 115.07 35.6705 114.79 35.7159C114.509 35.7614 114.241 35.803 113.983 35.8409C113.46 35.9242 113.013 36.053 112.642 36.2273C112.278 36.4015 111.998 36.6288 111.801 36.9091C111.612 37.1818 111.517 37.5076 111.517 37.8864C111.517 38.4621 111.722 38.9015 112.131 39.2045C112.547 39.5076 113.074 39.6591 113.71 39.6591ZM135.744 25.5455V29.6364H124.517V25.5455H135.744ZM126.858 43V24.6591C126.858 23.3106 127.112 22.1932 127.619 21.3068C128.127 20.4129 128.831 19.7462 129.733 19.3068C130.634 18.8598 131.676 18.6364 132.858 18.6364C133.631 18.6364 134.358 18.697 135.04 18.8182C135.729 18.9318 136.241 19.0341 136.574 19.125L135.688 23.1932C135.483 23.125 135.233 23.0682 134.938 23.0227C134.65 22.9773 134.377 22.9545 134.119 22.9545C133.468 22.9545 133.021 23.0985 132.778 23.3864C132.536 23.6742 132.415 24.0682 132.415 24.5682V43H126.858ZM148.27 25.5455V29.6364H137.259V25.5455H148.27ZM139.565 21.3636H145.122V37.5114C145.122 37.8523 145.175 38.1288 145.281 38.3409C145.395 38.5455 145.558 38.6932 145.77 38.7841C145.982 38.8674 146.236 38.9091 146.531 38.9091C146.743 38.9091 146.967 38.8902 147.202 38.8523C147.444 38.8068 147.626 38.7689 147.747 38.7386L148.588 42.75C148.323 42.8258 147.948 42.9205 147.463 43.0341C146.986 43.1477 146.414 43.2197 145.747 43.25C144.444 43.3106 143.327 43.1591 142.395 42.7955C141.471 42.4242 140.762 41.8485 140.27 41.0682C139.785 40.2879 139.55 39.3068 139.565 38.125V21.3636ZM157.037 19.7273V43H151.48V19.7273H157.037ZM163.972 49.5455C163.305 49.5455 162.676 49.4924 162.085 49.3864C161.494 49.2879 160.987 49.1553 160.562 48.9886L161.79 44.9545C162.335 45.1364 162.828 45.2424 163.267 45.2727C163.714 45.303 164.097 45.2311 164.415 45.0568C164.741 44.8902 164.991 44.5909 165.165 44.1591L165.381 43.6364L159.176 25.5455H164.994L168.21 38H168.392L171.653 25.5455H177.506L170.926 44.6705C170.608 45.625 170.157 46.4659 169.574 47.1932C168.998 47.928 168.252 48.5038 167.335 48.9205C166.426 49.3371 165.305 49.5455 163.972 49.5455ZM199.091 26.7045C199.015 25.8712 198.678 25.2235 198.08 24.7614C197.489 24.2917 196.644 24.0568 195.545 24.0568C194.818 24.0568 194.212 24.1515 193.727 24.3409C193.242 24.5303 192.879 24.7917 192.636 25.125C192.394 25.4508 192.269 25.8258 192.261 26.25C192.246 26.5985 192.314 26.9053 192.466 27.1705C192.625 27.4356 192.852 27.6705 193.148 27.875C193.451 28.072 193.814 28.2462 194.239 28.3977C194.663 28.5492 195.14 28.6818 195.67 28.7955L197.67 29.25C198.822 29.5 199.837 29.8333 200.716 30.25C201.602 30.6667 202.345 31.1629 202.943 31.7386C203.549 32.3144 204.008 32.9773 204.318 33.7273C204.629 34.4773 204.788 35.3182 204.795 36.25C204.788 37.7197 204.417 38.9811 203.682 40.0341C202.947 41.0871 201.89 41.8939 200.511 42.4545C199.14 43.0152 197.485 43.2955 195.545 43.2955C193.598 43.2955 191.902 43.0038 190.455 42.4205C189.008 41.8371 187.883 40.9508 187.08 39.7614C186.277 38.572 185.864 37.0682 185.841 35.25H191.227C191.273 36 191.473 36.625 191.83 37.125C192.186 37.625 192.674 38.0038 193.295 38.2614C193.924 38.5189 194.652 38.6477 195.477 38.6477C196.235 38.6477 196.879 38.5455 197.409 38.3409C197.947 38.1364 198.36 37.8523 198.648 37.4886C198.936 37.125 199.083 36.7083 199.091 36.2386C199.083 35.7992 198.947 35.4242 198.682 35.1136C198.417 34.7955 198.008 34.5227 197.455 34.2955C196.909 34.0606 196.212 33.8447 195.364 33.6477L192.932 33.0795C190.917 32.6174 189.33 31.8712 188.17 30.8409C187.011 29.803 186.436 28.4015 186.443 26.6364C186.436 25.197 186.822 23.9356 187.602 22.8523C188.383 21.7689 189.462 20.9242 190.841 20.3182C192.22 19.7121 193.792 19.4091 195.557 19.4091C197.36 19.4091 198.924 19.7159 200.25 20.3295C201.583 20.9356 202.617 21.7879 203.352 22.8864C204.087 23.9848 204.462 25.2576 204.477 26.7045H199.091ZM213.193 33.0455V43H207.636V19.7273H213.011V28.75H213.205C213.598 27.6742 214.242 26.8333 215.136 26.2273C216.038 25.6212 217.14 25.3182 218.443 25.3182C219.67 25.3182 220.739 25.5909 221.648 26.1364C222.557 26.6742 223.261 27.4356 223.761 28.4205C224.269 29.4053 224.519 30.5568 224.511 31.875V43H218.955V32.9659C218.962 31.9962 218.72 31.2386 218.227 30.6932C217.735 30.1477 217.042 29.875 216.148 29.875C215.564 29.875 215.049 30.0038 214.602 30.2614C214.163 30.5114 213.818 30.8712 213.568 31.3409C213.326 31.8106 213.201 32.3788 213.193 33.0455ZM236.128 43.3295C234.295 43.3295 232.719 42.9545 231.401 42.2045C230.09 41.447 229.079 40.3939 228.366 39.0455C227.662 37.6894 227.31 36.1174 227.31 34.3295C227.31 32.5341 227.662 30.9621 228.366 29.6136C229.079 28.2576 230.09 27.2045 231.401 26.4545C232.719 25.697 234.295 25.3182 236.128 25.3182C237.961 25.3182 239.533 25.697 240.844 26.4545C242.162 27.2045 243.173 28.2576 243.878 29.6136C244.59 30.9621 244.946 32.5341 244.946 34.3295C244.946 36.1174 244.59 37.6894 243.878 39.0455C243.173 40.3939 242.162 41.447 240.844 42.2045C239.533 42.9545 237.961 43.3295 236.128 43.3295ZM236.162 39.1364C236.829 39.1364 237.393 38.9318 237.855 38.5227C238.317 38.1136 238.67 37.5455 238.912 36.8182C239.162 36.0909 239.287 35.25 239.287 34.2955C239.287 33.3258 239.162 32.4773 238.912 31.75C238.67 31.0227 238.317 30.4545 237.855 30.0455C237.393 29.6364 236.829 29.4318 236.162 29.4318C235.473 29.4318 234.889 29.6364 234.412 30.0455C233.942 30.4545 233.582 31.0227 233.332 31.75C233.09 32.4773 232.969 33.3258 232.969 34.2955C232.969 35.25 233.09 36.0909 233.332 36.8182C233.582 37.5455 233.942 38.1136 234.412 38.5227C234.889 38.9318 235.473 39.1364 236.162 39.1364ZM247.793 49.5455V25.5455H253.293V28.5341H253.463C253.69 28.0038 254.012 27.4924 254.429 27C254.853 26.5076 255.391 26.1061 256.043 25.7955C256.702 25.4773 257.49 25.3182 258.406 25.3182C259.618 25.3182 260.751 25.6364 261.804 26.2727C262.865 26.9091 263.721 27.8902 264.372 29.2159C265.024 30.5417 265.349 32.2311 265.349 34.2841C265.349 36.2614 265.035 37.9167 264.406 39.25C263.785 40.5833 262.944 41.5833 261.884 42.25C260.83 42.9167 259.66 43.25 258.372 43.25C257.493 43.25 256.732 43.1061 256.088 42.8182C255.444 42.5303 254.902 42.1515 254.463 41.6818C254.031 41.2121 253.698 40.7083 253.463 40.1705H253.349V49.5455H247.793ZM253.236 34.2727C253.236 35.2121 253.361 36.0303 253.611 36.7273C253.868 37.4242 254.236 37.9659 254.713 38.3523C255.198 38.7311 255.777 38.9205 256.452 38.9205C257.134 38.9205 257.713 38.7311 258.19 38.3523C258.668 37.9659 259.027 37.4242 259.27 36.7273C259.52 36.0303 259.645 35.2121 259.645 34.2727C259.645 33.3333 259.52 32.5189 259.27 31.8295C259.027 31.1402 258.668 30.6061 258.19 30.2273C257.721 29.8485 257.141 29.6591 256.452 29.6591C255.77 29.6591 255.19 29.8447 254.713 30.2159C254.236 30.5871 253.868 31.1174 253.611 31.8068C253.361 32.4962 253.236 33.3182 253.236 34.2727Z" fill="black" fill-opacity="0.75"/>
<path d="M1 40.2955V35.7273H20.6705V40.2955H13.6136V59H8.06818V40.2955H1ZM28.9744 49.0455V59H23.4176V35.7273H28.7926V44.75H28.9858C29.3797 43.6742 30.0237 42.8333 30.9176 42.2273C31.8191 41.6212 32.9214 41.3182 34.2244 41.3182C35.4517 41.3182 36.5199 41.5909 37.429 42.1364C38.3381 42.6742 39.0426 43.4356 39.5426 44.4205C40.0502 45.4053 40.3002 46.5568 40.2926 47.875V59H34.7358V48.9659C34.7434 47.9962 34.5009 47.2386 34.0085 46.6932C33.5161 46.1477 32.8229 45.875 31.929 45.875C31.3456 45.875 30.8305 46.0038 30.3835 46.2614C29.9441 46.5114 29.5994 46.8712 29.3494 47.3409C29.107 47.8106 28.982 48.3788 28.9744 49.0455ZM51.9205 59.3295C50.0947 59.3295 48.5189 58.9697 47.1932 58.25C45.875 57.5227 44.8598 56.4886 44.1477 55.1477C43.4432 53.7992 43.0909 52.197 43.0909 50.3409C43.0909 48.5379 43.447 46.9621 44.1591 45.6136C44.8712 44.2576 45.875 43.2045 47.1705 42.4545C48.4659 41.697 49.9924 41.3182 51.75 41.3182C52.9924 41.3182 54.1288 41.5114 55.1591 41.8977C56.1894 42.2841 57.0795 42.8561 57.8295 43.6136C58.5795 44.3712 59.1629 45.3068 59.5795 46.4205C59.9962 47.5265 60.2045 48.7955 60.2045 50.2273V51.6136H45.0341V48.3864H55.0341C55.0265 47.7955 54.8864 47.2689 54.6136 46.8068C54.3409 46.3447 53.9659 45.9848 53.4886 45.7273C53.0189 45.4621 52.4773 45.3295 51.8636 45.3295C51.2424 45.3295 50.6856 45.4697 50.1932 45.75C49.7008 46.0227 49.3106 46.3977 49.0227 46.875C48.7348 47.3447 48.5833 47.8788 48.5682 48.4773V51.7614C48.5682 52.4735 48.7083 53.0985 48.9886 53.6364C49.2689 54.1667 49.6667 54.5795 50.1818 54.875C50.697 55.1705 51.3106 55.3182 52.0227 55.3182C52.5152 55.3182 52.9621 55.25 53.3636 55.1136C53.7652 54.9773 54.1098 54.7765 54.3977 54.5114C54.6856 54.2462 54.9015 53.9205 55.0455 53.5341L60.1477 53.6818C59.9356 54.8258 59.4697 55.822 58.75 56.6705C58.0379 57.5114 57.1023 58.1667 55.9432 58.6364C54.7841 59.0985 53.4432 59.3295 51.9205 59.3295ZM91.0426 44.1591H85.3608C85.285 43.5758 85.1297 43.0492 84.8949 42.5795C84.66 42.1098 84.3494 41.7083 83.9631 41.375C83.5767 41.0417 83.1184 40.7879 82.5881 40.6136C82.0653 40.4318 81.4858 40.3409 80.8494 40.3409C79.7206 40.3409 78.7472 40.6174 77.929 41.1705C77.1184 41.7235 76.4934 42.5227 76.054 43.5682C75.6222 44.6136 75.4062 45.8788 75.4062 47.3636C75.4062 48.9091 75.6259 50.2045 76.0653 51.25C76.5123 52.2879 77.1373 53.072 77.9403 53.6023C78.7509 54.125 79.7093 54.3864 80.8153 54.3864C81.4366 54.3864 82.0009 54.3068 82.5085 54.1477C83.0237 53.9886 83.4744 53.7576 83.8608 53.4545C84.2547 53.1439 84.5767 52.7689 84.8267 52.3295C85.0843 51.8826 85.2623 51.3788 85.3608 50.8182L91.0426 50.8523C90.9441 51.8826 90.6449 52.8977 90.1449 53.8977C89.6525 54.8977 88.9744 55.8106 88.1108 56.6364C87.2472 57.4545 86.1941 58.1061 84.9517 58.5909C83.7169 59.0758 82.3002 59.3182 80.7017 59.3182C78.5956 59.3182 76.7093 58.8561 75.0426 57.9318C73.3835 57 72.0729 55.6439 71.1108 53.8636C70.1487 52.0833 69.6676 49.9167 69.6676 47.3636C69.6676 44.803 70.1562 42.6326 71.1335 40.8523C72.1108 39.072 73.4328 37.7197 75.0994 36.7955C76.7661 35.8712 78.6335 35.4091 80.7017 35.4091C82.1108 35.4091 83.4138 35.6061 84.6108 36C85.8078 36.3864 86.8608 36.9545 87.7699 37.7045C88.679 38.447 89.4176 39.3598 89.9858 40.4432C90.554 41.5265 90.9062 42.7652 91.0426 44.1591ZM94.2614 59V41.5455H99.6591V44.7273H99.8409C100.159 43.5758 100.678 42.7197 101.398 42.1591C102.117 41.5909 102.955 41.3068 103.909 41.3068C104.167 41.3068 104.432 41.3258 104.705 41.3636C104.977 41.3939 105.231 41.4432 105.466 41.5114V46.3409C105.201 46.25 104.852 46.178 104.42 46.125C103.996 46.072 103.617 46.0455 103.284 46.0455C102.625 46.0455 102.03 46.1932 101.5 46.4886C100.977 46.7765 100.564 47.1818 100.261 47.7045C99.9659 48.2197 99.8182 48.8258 99.8182 49.5227V59H94.2614ZM111.994 59.2955C110.881 59.2955 109.892 59.1098 109.028 58.7386C108.172 58.3598 107.494 57.7917 106.994 57.0341C106.502 56.2689 106.256 55.3106 106.256 54.1591C106.256 53.1894 106.426 52.3712 106.767 51.7045C107.108 51.0379 107.578 50.4962 108.176 50.0795C108.775 49.6629 109.464 49.3485 110.244 49.1364C111.025 48.9167 111.858 48.7689 112.744 48.6932C113.737 48.6023 114.536 48.5076 115.142 48.4091C115.748 48.303 116.188 48.1553 116.46 47.9659C116.741 47.7689 116.881 47.4924 116.881 47.1364V47.0795C116.881 46.4962 116.68 46.0455 116.278 45.7273C115.877 45.4091 115.335 45.25 114.653 45.25C113.919 45.25 113.328 45.4091 112.881 45.7273C112.434 46.0455 112.15 46.4848 112.028 47.0455L106.903 46.8636C107.055 45.803 107.445 44.8561 108.074 44.0227C108.71 43.1818 109.581 42.5227 110.688 42.0455C111.801 41.5606 113.138 41.3182 114.699 41.3182C115.813 41.3182 116.839 41.4508 117.778 41.7159C118.718 41.9735 119.536 42.3523 120.233 42.8523C120.93 43.3447 121.468 43.9508 121.847 44.6705C122.233 45.3902 122.426 46.2121 122.426 47.1364V59H117.199V56.5682H117.062C116.752 57.1591 116.354 57.6591 115.869 58.0682C115.392 58.4773 114.828 58.7841 114.176 58.9886C113.532 59.1932 112.805 59.2955 111.994 59.2955ZM113.71 55.6591C114.309 55.6591 114.847 55.5379 115.324 55.2955C115.809 55.053 116.195 54.7197 116.483 54.2955C116.771 53.8636 116.915 53.3636 116.915 52.7955V51.1364C116.756 51.2197 116.563 51.2955 116.335 51.3636C116.116 51.4318 115.873 51.4962 115.608 51.5568C115.343 51.6174 115.07 51.6705 114.79 51.7159C114.509 51.7614 114.241 51.803 113.983 51.8409C113.46 51.9242 113.013 52.053 112.642 52.2273C112.278 52.4015 111.998 52.6288 111.801 52.9091C111.612 53.1818 111.517 53.5076 111.517 53.8864C111.517 54.4621 111.722 54.9015 112.131 55.2045C112.547 55.5076 113.074 55.6591 113.71 55.6591ZM135.744 41.5455V45.6364H124.517V41.5455H135.744ZM126.858 59V40.6591C126.858 39.3106 127.112 38.1932 127.619 37.3068C128.127 36.4129 128.831 35.7462 129.733 35.3068C130.634 34.8598 131.676 34.6364 132.858 34.6364C133.631 34.6364 134.358 34.697 135.04 34.8182C135.729 34.9318 136.241 35.0341 136.574 35.125L135.688 39.1932C135.483 39.125 135.233 39.0682 134.938 39.0227C134.65 38.9773 134.377 38.9545 134.119 38.9545C133.468 38.9545 133.021 39.0985 132.778 39.3864C132.536 39.6742 132.415 40.0682 132.415 40.5682V59H126.858ZM148.27 41.5455V45.6364H137.259V41.5455H148.27ZM139.565 37.3636H145.122V53.5114C145.122 53.8523 145.175 54.1288 145.281 54.3409C145.395 54.5455 145.558 54.6932 145.77 54.7841C145.982 54.8674 146.236 54.9091 146.531 54.9091C146.743 54.9091 146.967 54.8902 147.202 54.8523C147.444 54.8068 147.626 54.7689 147.747 54.7386L148.588 58.75C148.323 58.8258 147.948 58.9205 147.463 59.0341C146.986 59.1477 146.414 59.2197 145.747 59.25C144.444 59.3106 143.327 59.1591 142.395 58.7955C141.471 58.4242 140.762 57.8485 140.27 57.0682C139.785 56.2879 139.55 55.3068 139.565 54.125V37.3636ZM157.037 35.7273V59H151.48V35.7273H157.037ZM163.972 65.5455C163.305 65.5455 162.676 65.4924 162.085 65.3864C161.494 65.2879 160.987 65.1553 160.562 64.9886L161.79 60.9545C162.335 61.1364 162.828 61.2424 163.267 61.2727C163.714 61.303 164.097 61.2311 164.415 61.0568C164.741 60.8902 164.991 60.5909 165.165 60.1591L165.381 59.6364L159.176 41.5455H164.994L168.21 54H168.392L171.653 41.5455H177.506L170.926 60.6705C170.608 61.625 170.157 62.4659 169.574 63.1932C168.998 63.928 168.252 64.5038 167.335 64.9205C166.426 65.3371 165.305 65.5455 163.972 65.5455ZM199.091 42.7045C199.015 41.8712 198.678 41.2235 198.08 40.7614C197.489 40.2917 196.644 40.0568 195.545 40.0568C194.818 40.0568 194.212 40.1515 193.727 40.3409C193.242 40.5303 192.879 40.7917 192.636 41.125C192.394 41.4508 192.269 41.8258 192.261 42.25C192.246 42.5985 192.314 42.9053 192.466 43.1705C192.625 43.4356 192.852 43.6705 193.148 43.875C193.451 44.072 193.814 44.2462 194.239 44.3977C194.663 44.5492 195.14 44.6818 195.67 44.7955L197.67 45.25C198.822 45.5 199.837 45.8333 200.716 46.25C201.602 46.6667 202.345 47.1629 202.943 47.7386C203.549 48.3144 204.008 48.9773 204.318 49.7273C204.629 50.4773 204.788 51.3182 204.795 52.25C204.788 53.7197 204.417 54.9811 203.682 56.0341C202.947 57.0871 201.89 57.8939 200.511 58.4545C199.14 59.0152 197.485 59.2955 195.545 59.2955C193.598 59.2955 191.902 59.0038 190.455 58.4205C189.008 57.8371 187.883 56.9508 187.08 55.7614C186.277 54.572 185.864 53.0682 185.841 51.25H191.227C191.273 52 191.473 52.625 191.83 53.125C192.186 53.625 192.674 54.0038 193.295 54.2614C193.924 54.5189 194.652 54.6477 195.477 54.6477C196.235 54.6477 196.879 54.5455 197.409 54.3409C197.947 54.1364 198.36 53.8523 198.648 53.4886C198.936 53.125 199.083 52.7083 199.091 52.2386C199.083 51.7992 198.947 51.4242 198.682 51.1136C198.417 50.7955 198.008 50.5227 197.455 50.2955C196.909 50.0606 196.212 49.8447 195.364 49.6477L192.932 49.0795C190.917 48.6174 189.33 47.8712 188.17 46.8409C187.011 45.803 186.436 44.4015 186.443 42.6364C186.436 41.197 186.822 39.9356 187.602 38.8523C188.383 37.7689 189.462 36.9242 190.841 36.3182C192.22 35.7121 193.792 35.4091 195.557 35.4091C197.36 35.4091 198.924 35.7159 200.25 36.3295C201.583 36.9356 202.617 37.7879 203.352 38.8864C204.087 39.9848 204.462 41.2576 204.477 42.7045H199.091ZM213.193 49.0455V59H207.636V35.7273H213.011V44.75H213.205C213.598 43.6742 214.242 42.8333 215.136 42.2273C216.038 41.6212 217.14 41.3182 218.443 41.3182C219.67 41.3182 220.739 41.5909 221.648 42.1364C222.557 42.6742 223.261 43.4356 223.761 44.4205C224.269 45.4053 224.519 46.5568 224.511 47.875V59H218.955V48.9659C218.962 47.9962 218.72 47.2386 218.227 46.6932C217.735 46.1477 217.042 45.875 216.148 45.875C215.564 45.875 215.049 46.0038 214.602 46.2614C214.163 46.5114 213.818 46.8712 213.568 47.3409C213.326 47.8106 213.201 48.3788 213.193 49.0455ZM236.128 59.3295C234.295 59.3295 232.719 58.9545 231.401 58.2045C230.09 57.447 229.079 56.3939 228.366 55.0455C227.662 53.6894 227.31 52.1174 227.31 50.3295C227.31 48.5341 227.662 46.9621 228.366 45.6136C229.079 44.2576 230.09 43.2045 231.401 42.4545C232.719 41.697 234.295 41.3182 236.128 41.3182C237.961 41.3182 239.533 41.697 240.844 42.4545C242.162 43.2045 243.173 44.2576 243.878 45.6136C244.59 46.9621 244.946 48.5341 244.946 50.3295C244.946 52.1174 244.59 53.6894 243.878 55.0455C243.173 56.3939 242.162 57.447 240.844 58.2045C239.533 58.9545 237.961 59.3295 236.128 59.3295ZM236.162 55.1364C236.829 55.1364 237.393 54.9318 237.855 54.5227C238.317 54.1136 238.67 53.5455 238.912 52.8182C239.162 52.0909 239.287 51.25 239.287 50.2955C239.287 49.3258 239.162 48.4773 238.912 47.75C238.67 47.0227 238.317 46.4545 237.855 46.0455C237.393 45.6364 236.829 45.4318 236.162 45.4318C235.473 45.4318 234.889 45.6364 234.412 46.0455C233.942 46.4545 233.582 47.0227 233.332 47.75C233.09 48.4773 232.969 49.3258 232.969 50.2955C232.969 51.25 233.09 52.0909 233.332 52.8182C233.582 53.5455 233.942 54.1136 234.412 54.5227C234.889 54.9318 235.473 55.1364 236.162 55.1364ZM247.793 65.5455V41.5455H253.293V44.5341H253.463C253.69 44.0038 254.012 43.4924 254.429 43C254.853 42.5076 255.391 42.1061 256.043 41.7955C256.702 41.4773 257.49 41.3182 258.406 41.3182C259.618 41.3182 260.751 41.6364 261.804 42.2727C262.865 42.9091 263.721 43.8902 264.372 45.2159C265.024 46.5417 265.349 48.2311 265.349 50.2841C265.349 52.2614 265.035 53.9167 264.406 55.25C263.785 56.5833 262.944 57.5833 261.884 58.25C260.83 58.9167 259.66 59.25 258.372 59.25C257.493 59.25 256.732 59.1061 256.088 58.8182C255.444 58.5303 254.902 58.1515 254.463 57.6818C254.031 57.2121 253.698 56.7083 253.463 56.1705H253.349V65.5455H247.793ZM253.236 50.2727C253.236 51.2121 253.361 52.0303 253.611 52.7273C253.868 53.4242 254.236 53.9659 254.713 54.3523C255.198 54.7311 255.777 54.9205 256.452 54.9205C257.134 54.9205 257.713 54.7311 258.19 54.3523C258.668 53.9659 259.027 53.4242 259.27 52.7273C259.52 52.0303 259.645 51.2121 259.645 50.2727C259.645 49.3333 259.52 48.5189 259.27 47.8295C259.027 47.1402 258.668 46.6061 258.19 46.2273C257.721 45.8485 257.141 45.6591 256.452 45.6591C255.77 45.6591 255.19 45.8447 254.713 46.2159C254.236 46.5871 253.868 47.1174 253.611 47.8068C253.361 48.4962 253.236 49.3182 253.236 50.2727Z" fill="black"/>
</svg>
